<svg width="95" height="34" viewBox="0 0 95 34" fill="none" xmlns="http://www.w3.org/2000/svg">
<path d="M9.24746 1.71522C10.8222 1.71522 13.6032 2.01791 13.6032 7.16357C13.6032 12.3765 11.5928 12.9146 9.81705 12.9146H8.8454V1.71522H9.24746ZM13.1676 12.9482C13.8377 12.9482 20.4717 12.3765 20.4717 7.36536C20.4717 1.44617 14.8093 1.41253 10.1521 1.41253H0V1.68159C1.47423 1.68159 1.94331 3.96855 1.94331 6.05372V20.4817C1.94331 22.7687 1.44073 24.7866 0 24.7866V25.0893H10.1521C15.9485 25.0893 22.0465 24.9548 22.0465 19.0692C22.0465 13.3182 15.3454 12.9482 13.1676 12.9482ZM9.31447 24.7866H8.8454V13.2173H9.54901C11.7604 13.2173 14.7758 13.3182 14.7758 18.9347C14.7758 24.8875 12.2294 24.7866 9.31447 24.7866Z" fill="white"/>
<path d="M32.0303 21.2889V0L24.5586 1.41253V1.68159C25.9323 2.18606 26.3344 2.65691 26.3344 3.83402V21.2889C26.3344 23.0378 26.3009 24.4503 25.0277 24.8202V25.0893H33.404V24.8202C32.1978 24.4839 32.0303 23.1387 32.0303 21.2889Z" fill="white"/>
<path d="M44.4432 9.24874C38.4458 9.24874 35.7988 12.881 35.7988 17.3204C35.7988 21.7261 38.4458 25.392 44.4432 25.392C50.4407 25.392 53.0876 21.7261 53.0876 17.3204C53.0876 12.881 50.4407 9.24874 44.4432 9.24874ZM44.4432 25.0893C42.6004 25.0893 42.5669 23.4077 42.5669 17.3204C42.5669 11.233 42.6004 9.55142 44.4432 9.55142C46.2525 9.55142 46.286 11.233 46.286 17.3204C46.286 23.4077 46.2525 25.0893 44.4432 25.0893Z" fill="white"/>
<path d="M71.4728 8.77789C70.7022 8.91242 69.7306 9.48416 68.6919 10.7622C67.6532 9.85411 65.8104 9.24874 63.0965 9.24874C57.6686 9.24874 56.1609 11.5693 56.1609 14.2935C56.1609 15.6051 56.697 17.8248 59.4779 18.8002C56.3284 20.1791 56.4289 22.9369 56.4289 22.9369C56.4289 24.4503 57.2666 25.3247 58.3052 25.8292C56.6635 26.5691 53.8155 28.4861 55.3233 31.782C56.5965 34.5735 63.9006 34.7416 67.5862 32.2192C70.9032 29.9323 71.1043 27.4099 71.1043 27.4099C71.9084 20.9862 67.6867 20.8853 65.5424 20.8853H60.8516C57.5681 20.8853 58.9418 19.4392 59.8465 18.9011C60.7511 19.2037 61.7228 19.3383 63.0965 19.3383C69.0269 19.3383 70.0321 16.076 70.0321 14.2935C70.0321 13.0491 69.6971 11.7711 68.8594 10.9303C69.429 10.4595 70.0991 10.3586 70.0321 10.6949C69.9316 11.1994 70.1661 11.7375 70.5347 12.1747C71.3053 13.0155 72.6455 13.15 73.4832 12.3765C74.3543 11.5693 74.4548 10.2577 73.6507 9.4169C73.0811 8.84516 72.1764 8.60973 71.4728 8.77789ZM61.7563 26.5691H66.313C68.7589 26.5691 69.295 28.2843 69.295 28.2843C69.295 28.2843 69.7976 29.7305 69.094 30.504C68.5244 31.143 66.045 31.6811 62.2589 31.143C62.2589 31.143 55.0887 29.7977 58.5733 25.9974C59.88 26.5355 61.3877 26.5691 61.7563 26.5691ZM63.0965 19.0692C62.0578 19.0692 61.7563 18.0603 61.7563 14.2935C61.7563 10.5267 61.8568 9.55142 63.0965 9.55142C64.3027 9.55142 64.4367 10.5267 64.4367 14.2935C64.4367 18.0603 64.1017 19.0692 63.0965 19.0692Z" fill="white"/>
<path d="M86.5426 9.55142V9.82048C90.7308 9.82048 89.089 15.2352 89.089 15.2352L87.7153 19.3046L84.2978 12.6455C84.2978 12.6455 82.8235 9.82048 85.0684 9.82048V9.55142H74.5812V9.82048C75.2513 9.88774 76.357 10.1568 77.2952 11.9056L84.9344 27.1745C83.9962 30.5376 83.1586 29.8986 83.0246 29.3942C82.79 28.6879 82.2875 28.1498 81.5503 27.8135C80.1096 27.1745 78.4343 27.8135 77.7642 29.2596C77.1611 30.7058 77.7642 32.3874 79.205 33.06C80.1766 33.4972 81.6844 33.3291 82.4215 32.7237C83.1921 32.0847 84.1638 30.7731 85.2024 27.4099L89.3906 15.3361C91.1664 11.0985 91.937 9.82048 94.3494 9.82048V9.55142H86.5426Z" fill="white"/>
<circle cx="80.7476" cy="30.5992" r="3.39998" fill="#EB0202"/>
</svg>
